<svg version="1.1" id="Layer_1" xmlns="http://www.w3.org/2000/svg" xmlns:xlink="http://www.w3.org/1999/xlink" x="0px" y="0px"
	 width="100%" viewBox="0 0 516 516" enable-background="new 0 0 516 516" xml:space="preserve">
<path fill="#010101" opacity="1.000000" stroke="none" 
	d="
M285.000000,517.000000 
	C190.022888,517.000000 95.545769,517.000000 1.034328,517.000000 
	C1.034328,345.064545 1.034328,173.129074 1.034328,1.096809 
	C172.893753,1.096809 344.787567,1.096809 516.840698,1.096809 
	C516.840698,172.999878 516.840698,344.999939 516.840698,517.000000 
	C439.795776,517.000000 362.647888,517.000000 285.000000,517.000000 
M84.009125,206.009247 
	C84.009125,206.009247 84.008720,205.974228 83.332970,206.251541 
	C80.735146,209.253052 79.979050,212.336807 83.015701,216.178619 
	C84.330101,217.028687 85.644501,217.878754 87.863266,219.040405 
	C89.027046,219.085480 90.190819,219.169998 91.354599,219.170074 
	C202.920792,219.176926 314.486969,219.179291 426.053162,219.159210 
	C427.696747,219.158920 429.340302,218.873886 431.664734,218.676788 
	C438.037811,214.647919 438.379761,209.026413 431.832947,204.256027 
	C430.024414,204.057861 428.215881,203.686737 426.407318,203.686279 
	C314.756561,203.658340 203.105774,203.654816 91.455025,203.710388 
	C89.577370,203.711319 87.700089,204.463181 85.946075,204.885544 
	C85.946075,204.885544 85.931892,204.761139 85.298714,204.795105 
	C84.857178,205.199768 84.415642,205.604431 84.009125,206.009247 
M218.500183,224.341522 
	C194.062408,224.341522 169.624619,224.341522 145.154922,224.341522 
	C148.591751,273.214935 193.910065,327.268585 261.043640,326.128265 
	C327.171906,325.005035 369.839020,270.766541 372.772614,224.783920 
	C372.470154,224.652267 372.167755,224.405472 371.865234,224.405273 
	C321.076904,224.372482 270.288544,224.357346 218.500183,224.341522 
M325.423065,117.059456 
	C258.291046,70.401581 176.003250,107.660278 155.556885,162.646667 
	C224.598114,162.646667 293.676147,162.646667 363.435944,162.646667 
	C354.650085,144.011383 342.225006,129.186768 325.423065,117.059456 
M223.500000,167.924591 
	C204.016983,167.920349 184.533981,167.911041 165.050964,167.913605 
	C151.596695,167.915390 151.433441,167.877533 147.854568,180.808899 
	C146.298981,186.429611 145.570267,192.279175 144.398865,198.374069 
	C146.620773,198.583099 147.588837,198.751831 148.557175,198.753418 
	C160.213623,198.772522 171.870102,198.768188 183.526581,198.767548 
	C244.639847,198.764160 305.753113,198.763840 366.866364,198.750580 
	C373.223236,198.749191 374.032715,198.005829 372.713165,191.855972 
	C371.355377,185.527756 369.248352,179.361954 367.837494,173.042862 
	C366.877777,168.744293 364.505341,167.808807 360.380859,167.821869 
	C315.087585,167.965469 269.793701,167.919525 223.500000,167.924591 
M190.227966,371.249969 
	C189.575089,371.672638 188.328445,372.142670 188.357819,372.510895 
	C188.847565,378.646240 189.218918,384.811890 190.159103,390.886871 
	C194.218674,417.118225 208.025208,432.357391 233.186066,437.718750 
	C251.316544,441.582031 269.601868,441.482422 287.660126,437.057465 
	C315.795502,430.163239 334.954193,399.181030 329.035736,370.253082 
	C319.581390,378.450500 308.585846,383.327972 296.581085,385.954712 
	C273.676941,390.966339 250.633957,390.981232 227.574799,387.228302 
	C214.099548,385.035156 201.532516,380.458313 190.227966,371.249969 
M336.056244,323.447662 
	C331.892029,319.726135 327.727783,316.004639 323.563568,312.283112 
	C323.180267,312.659332 322.796967,313.035553 322.413666,313.411774 
	C323.259277,315.140503 324.100220,316.871552 324.951263,318.597595 
	C331.383423,331.643372 335.066956,345.461151 334.768524,359.976868 
	C334.632172,366.608612 336.622101,371.006531 341.665436,375.200317 
	C350.437958,382.494995 358.596375,390.528198 366.993530,398.234619 
	C358.216156,408.461487 357.053650,419.141479 363.414215,428.303589 
	C369.337189,436.835480 380.264008,440.276459 389.970703,436.666565 
	C400.754791,432.655914 405.702393,423.095581 404.212494,409.146942 
	C419.919922,408.269104 428.171234,402.813995 430.804291,391.566498 
	C433.019226,382.105103 428.763855,371.992218 420.455292,366.972168 
	C410.886200,361.190521 400.567688,363.069580 390.068237,372.670441 
	C372.252319,356.434937 354.414917,340.179840 336.056244,323.447662 
M156.597946,406.095734 
	C154.893234,403.485168 153.188538,400.874634 151.273117,397.941376 
	C160.653336,389.359528 170.168594,380.542938 179.833649,371.893707 
	C182.109222,369.857300 183.209290,367.864075 183.112366,364.664368 
	C182.588120,347.355560 186.311951,330.982056 194.579025,315.696686 
	C195.000000,314.918335 195.155075,313.996216 195.433945,313.141022 
	C195.062988,312.838196 194.692032,312.535370 194.321075,312.232544 
	C172.176117,332.386597 150.031158,352.540649 127.912773,372.670471 
	C117.354790,363.049042 107.190536,361.213928 97.501556,367.003906 
	C89.267159,371.924652 84.517670,382.370270 87.415504,391.543610 
	C88.802032,395.932770 91.641624,400.253723 94.878929,403.577057 
	C99.908722,408.740479 106.853737,409.494263 113.445190,408.870728 
	C113.445190,412.313141 113.042992,415.493866 113.514442,418.539398 
	C115.618988,432.134552 128.374527,440.666107 141.351456,437.378754 
	C154.936798,433.937256 161.579407,420.868469 156.597946,406.095734 
M417.119293,78.097412 
	C408.945648,80.122849 403.002625,84.897797 400.252747,92.893913 
	C397.032593,102.257454 399.753204,110.475502 406.561920,117.556053 
	C392.683136,130.305740 379.104431,142.779755 366.257019,154.581985 
	C370.458252,166.877319 374.384277,178.367126 378.361847,190.007935 
	C395.409668,174.404083 412.542114,158.722748 429.650726,143.063217 
	C439.979614,152.653793 449.463806,154.577423 459.228516,149.255829 
	C467.543854,144.724091 472.815918,134.662567 470.487732,125.719643 
	C469.325897,121.256874 466.826691,116.764015 463.810516,113.246849 
	C458.700165,107.287697 451.304779,106.324799 443.764435,107.003609 
	C445.389557,87.431870 435.846069,76.901665 417.119293,78.097412 
M80.082138,84.588348 
	C74.131683,90.871376 72.757614,98.428307 74.368881,106.669090 
	C58.536221,107.555779 50.943577,112.491852 47.901192,123.614586 
	C45.322247,133.042999 49.208721,143.224365 57.377670,148.440018 
	C67.058472,154.620956 76.259338,153.071091 88.486473,143.183960 
	C105.628166,158.870270 122.773483,174.559891 139.624481,189.980179 
	C143.699661,178.094116 147.649368,166.574066 151.760208,154.584015 
	C138.637711,142.532471 125.071915,130.073807 111.531296,117.638275 
	C121.236153,105.657661 121.374710,93.185043 112.190262,84.146660 
	C103.580139,75.673470 90.786026,75.646271 80.082138,84.588348 
M261.609253,363.853455 
	C261.609253,370.784119 261.609253,377.714752 261.609253,385.481812 
	C273.505249,384.104065 284.718506,382.805420 295.916931,381.508453 
	C294.861877,372.108337 293.961548,364.087006 293.075470,356.192352 
	C282.433594,357.180878 272.247467,358.127045 261.608978,359.115265 
	C261.608978,360.366516 261.608978,361.656128 261.609253,363.853455 
M247.432358,358.306458 
	C240.029099,357.593109 232.625839,356.879791 224.935074,356.138733 
	C224.049759,364.420807 223.174606,372.607910 222.202271,381.704254 
	C233.743866,382.928284 244.851990,384.106384 256.086365,385.297852 
	C256.086365,375.778168 256.086365,367.366882 256.086365,358.788757 
	C253.324097,358.635406 250.848663,358.497986 247.432358,358.306458 
M188.958466,362.998779 
	C196.543228,371.300690 205.955383,376.421204 217.243057,379.579102 
	C218.186066,370.892700 219.072342,362.728882 219.837830,355.677734 
	C209.425842,350.774231 199.775818,346.229553 189.490784,341.385834 
	C189.149139,348.217834 188.795120,355.297333 188.958466,362.998779 
M303.929230,378.705750 
	C312.708801,375.767609 320.678284,371.434753 327.275238,364.851929 
	C328.386292,363.743256 329.839355,362.143951 329.778442,360.834442 
	C329.469879,354.203400 328.713623,347.593170 328.172424,341.617340 
	C317.761383,346.463623 308.093506,350.963989 298.161346,355.587341 
	C298.884918,362.119934 299.579529,369.226318 300.560455,376.293030 
	C300.698090,377.284302 302.238556,378.080841 303.929230,378.705750 
M241.694641,330.016724 
	C237.195236,329.233002 232.695816,328.449310 227.944550,327.621735 
	C227.139496,335.611694 226.382904,343.120850 225.570740,351.181458 
	C236.269836,352.109619 246.118042,352.963989 256.141449,353.833527 
	C256.141449,345.797852 256.141449,338.697662 256.141449,331.487366 
	C251.467484,331.014801 247.020706,330.565216 241.694641,330.016724 
M288.833008,351.206512 
	C289.966705,350.225128 292.129211,349.176880 292.070404,348.273041 
	C291.621765,341.374664 290.739960,334.504456 290.019745,327.872894 
	C280.354309,329.212708 271.210785,330.480194 261.926575,331.767151 
	C261.926575,338.871368 261.926575,346.070496 261.926575,353.993927 
	C270.857086,353.075836 279.403809,352.197144 288.833008,351.206512 
M296.497009,325.228027 
	C296.006958,325.832794 295.045654,326.482239 295.098114,327.035583 
	C295.794647,334.380371 296.633453,341.711700 297.480011,349.441589 
	C307.420502,346.785645 316.059631,343.145935 323.487213,337.016663 
	C324.471710,336.204224 325.752197,334.410034 325.454773,333.598663 
	C323.260895,327.613861 320.701111,321.763184 318.418457,316.260773 
	C310.756927,319.439301 304.018219,322.234955 296.497009,325.228027 
M200.956360,341.546021 
	C207.231934,344.333954 213.507507,347.121918 220.451080,350.206635 
	C221.369644,342.085938 222.271866,335.225830 222.793594,328.336884 
	C222.875183,327.259583 221.471848,325.503265 220.336533,324.993744 
	C213.721451,322.025024 206.981430,319.334686 199.801666,316.349915 
	C198.449921,319.175598 196.725662,322.195892 195.517929,325.410278 
	C191.303009,336.628357 189.821518,333.899506 200.956360,341.546021 
z"/>
<path fill="#F9F9F9" opacity="1.000000" stroke="none" 
	d="
M219.000198,224.341522 
	C270.288544,224.357346 321.076904,224.372482 371.865234,224.405273 
	C372.167755,224.405472 372.470154,224.652267 372.771912,224.785492 
	C369.839020,270.766541 327.171906,325.005035 261.043640,326.128265 
	C193.910065,327.268585 148.591751,273.214935 145.154922,224.341522 
	C169.624619,224.341522 194.062408,224.341522 219.000198,224.341522 
M188.235260,278.089172 
	C198.717148,294.186829 218.404083,298.593994 233.369186,288.192932 
	C248.184219,277.896179 251.548950,257.493561 240.779480,243.259201 
	C230.992889,230.323944 212.998703,226.809082 199.239990,235.145111 
	C184.757172,243.919846 180.123795,261.177094 188.235260,278.089172 
M289.118286,287.462036 
	C289.948242,288.015167 290.757477,288.602753 291.611267,289.116302 
	C303.657043,296.361725 318.928680,294.938324 329.169037,285.626251 
	C339.688629,276.060272 342.622437,260.708832 336.320465,248.206253 
	C329.906433,235.481400 316.141693,228.372162 302.219757,231.189606 
	C289.561859,233.751236 280.994263,241.460800 277.638397,253.985046 
	C274.108856,267.157379 278.248047,278.209015 289.118286,287.462036 
M265.281342,297.789856 
	C259.989075,296.067139 254.789337,296.141785 249.983459,299.141571 
	C245.074081,302.205963 245.049881,307.161774 249.926086,310.297089 
	C254.368515,313.153534 259.481049,313.858795 264.214661,311.868805 
	C267.101044,310.655396 270.536987,307.962585 271.233154,305.285889 
	C271.713531,303.438904 267.928497,300.482483 265.281342,297.789856 
z"/>
<path fill="#FACA06" opacity="1.000000" stroke="none" 
	d="
M325.724121,117.253952 
	C342.225006,129.186768 354.650085,144.011383 363.435944,162.646667 
	C293.676147,162.646667 224.598114,162.646667 155.556885,162.646667 
	C176.003250,107.660278 258.291046,70.401581 325.724121,117.253952 
M187.916580,151.524628 
	C194.071213,145.061295 200.159164,138.532333 206.418823,132.172379 
	C208.443237,130.115540 211.229233,128.321823 208.671616,125.236687 
	C206.343552,122.428452 203.672974,124.131744 201.785110,126.056122 
	C194.956375,133.016907 188.241501,140.092865 181.622604,147.253784 
	C179.744049,149.286179 178.424637,151.949982 181.357147,154.145859 
	C184.053696,156.165054 185.950882,154.362747 187.916580,151.524628 
M326.480530,139.999039 
	C330.718628,145.312225 334.794830,150.769836 339.312683,155.833420 
	C340.394501,157.045929 342.946350,156.946869 344.822083,157.451019 
	C345.220032,155.830460 346.511505,153.517792 345.876190,152.697617 
	C340.205872,145.377289 334.288971,138.237610 328.148712,131.306946 
	C327.496674,130.570938 324.347321,130.928970 323.455994,131.846970 
	C322.613251,132.714920 322.860779,135.094299 323.305817,136.610092 
	C323.635376,137.732666 325.050446,138.536560 326.480530,139.999039 
M218.398209,139.829086 
	C220.540024,137.830231 222.092499,135.571930 219.275482,133.130386 
	C216.753555,130.944565 214.576279,132.563492 212.879974,134.588623 
	C208.626511,139.666641 204.396591,144.769363 200.329514,149.996246 
	C198.552917,152.279465 196.951859,155.120987 200.417770,157.229874 
	C203.579346,159.153610 205.034851,156.495880 206.707260,154.299103 
	C210.317978,149.556366 214.146484,144.979431 218.398209,139.829086 
M307.293274,136.864197 
	C305.425995,137.121521 303.558685,137.378845 301.691376,137.636169 
	C302.031158,139.416672 301.878662,141.524200 302.803345,142.916107 
	C305.538055,147.032623 308.777344,150.809830 311.660797,154.833328 
	C313.245758,157.044952 314.904968,158.942047 317.705231,157.120911 
	C320.448883,155.336639 319.781067,152.873459 318.136993,150.676620 
	C314.775665,146.185181 311.309326,141.772385 307.293274,136.864197 
M230.135666,140.797836 
	C226.789200,144.400681 223.157928,147.794388 220.266525,151.731445 
	C219.377380,152.942169 220.510712,155.638214 220.717941,157.654114 
	C222.564484,157.142044 224.889252,157.157928 226.158340,156.008377 
	C228.825409,153.592560 230.928909,150.556915 233.280655,147.790039 
	C236.354782,144.173248 235.639389,142.076172 230.135666,140.797836 
z"/>
<path fill="#C50218" opacity="1.000000" stroke="none" 
	d="
M224.000000,167.924805 
	C269.793701,167.919525 315.087585,167.965469 360.380859,167.821869 
	C364.505341,167.808807 366.877777,168.744293 367.837494,173.042862 
	C369.248352,179.361954 371.355377,185.527756 372.713165,191.855972 
	C374.032715,198.005829 373.223236,198.749191 366.866364,198.750580 
	C305.753113,198.763840 244.639847,198.764160 183.526581,198.767548 
	C171.870102,198.768188 160.213623,198.772522 148.557175,198.753418 
	C147.588837,198.751831 146.620773,198.583099 144.398865,198.374069 
	C145.570267,192.279175 146.298981,186.429611 147.854568,180.808899 
	C151.433441,167.877533 151.596695,167.915390 165.050964,167.913605 
	C184.533981,167.911041 204.016983,167.920349 224.000000,167.924805 
z"/>
<path fill="#FCFCFC" opacity="1.000000" stroke="none" 
	d="
M190.492371,371.494202 
	C201.532516,380.458313 214.099548,385.035156 227.574799,387.228302 
	C250.633957,390.981232 273.676941,390.966339 296.581085,385.954712 
	C308.585846,383.327972 319.581390,378.450500 329.035736,370.253082 
	C334.954193,399.181030 315.795502,430.163239 287.660126,437.057465 
	C269.601868,441.482422 251.316544,441.582031 233.186066,437.718750 
	C208.025208,432.357391 194.218674,417.118225 190.159103,390.886871 
	C189.218918,384.811890 188.847565,378.646240 188.357819,372.510895 
	C188.328445,372.142670 189.575089,371.672638 190.492371,371.494202 
z"/>
<path fill="#FBFBFB" opacity="1.000000" stroke="none" 
	d="
M336.316895,323.686218 
	C354.414917,340.179840 372.252319,356.434937 390.068237,372.670441 
	C400.567688,363.069580 410.886200,361.190521 420.455292,366.972168 
	C428.763855,371.992218 433.019226,382.105103 430.804291,391.566498 
	C428.171234,402.813995 419.919922,408.269104 404.212494,409.146942 
	C405.702393,423.095581 400.754791,432.655914 389.970703,436.666565 
	C380.264008,440.276459 369.337189,436.835480 363.414215,428.303589 
	C357.053650,419.141479 358.216156,408.461487 366.993530,398.234619 
	C358.596375,390.528198 350.437958,382.494995 341.665436,375.200317 
	C336.622101,371.006531 334.632172,366.608612 334.768524,359.976868 
	C335.066956,345.461151 331.383423,331.643372 324.951263,318.597595 
	C324.100220,316.871552 323.259277,315.140503 322.413666,313.411774 
	C322.796967,313.035553 323.180267,312.659332 323.563568,312.283112 
	C327.727783,316.004639 331.892029,319.726135 336.316895,323.686218 
z"/>
<path fill="#FBFBFB" opacity="1.000000" stroke="none" 
	d="
M156.741974,406.455811 
	C161.579407,420.868469 154.936798,433.937256 141.351456,437.378754 
	C128.374527,440.666107 115.618988,432.134552 113.514442,418.539398 
	C113.042992,415.493866 113.445190,412.313141 113.445190,408.870728 
	C106.853737,409.494263 99.908722,408.740479 94.878929,403.577057 
	C91.641624,400.253723 88.802032,395.932770 87.415504,391.543610 
	C84.517670,382.370270 89.267159,371.924652 97.501556,367.003906 
	C107.190536,361.213928 117.354790,363.049042 127.912773,372.670471 
	C150.031158,352.540649 172.176117,332.386597 194.321075,312.232544 
	C194.692032,312.535370 195.062988,312.838196 195.433945,313.141022 
	C195.155075,313.996216 195.000000,314.918335 194.579025,315.696686 
	C186.311951,330.982056 182.588120,347.355560 183.112366,364.664368 
	C183.209290,367.864075 182.109222,369.857300 179.833649,371.893707 
	C170.168594,380.542938 160.653336,389.359528 151.273117,397.941376 
	C153.188538,400.874634 154.893234,403.485168 156.741974,406.455811 
z"/>
<path fill="#FBFBFB" opacity="1.000000" stroke="none" 
	d="
M417.551758,78.044067 
	C435.846069,76.901665 445.389557,87.431870 443.764435,107.003609 
	C451.304779,106.324799 458.700165,107.287697 463.810516,113.246849 
	C466.826691,116.764015 469.325897,121.256874 470.487732,125.719643 
	C472.815918,134.662567 467.543854,144.724091 459.228516,149.255829 
	C449.463806,154.577423 439.979614,152.653793 429.650726,143.063217 
	C412.542114,158.722748 395.409668,174.404083 378.361847,190.007935 
	C374.384277,178.367126 370.458252,166.877319 366.257019,154.581985 
	C379.104431,142.779755 392.683136,130.305740 406.561920,117.556053 
	C399.753204,110.475502 397.032593,102.257454 400.252747,92.893913 
	C403.002625,84.897797 408.945648,80.122849 417.551758,78.044067 
z"/>
<path fill="#FCFCFC" opacity="1.000000" stroke="none" 
	d="
M80.335510,84.333923 
	C90.786026,75.646271 103.580139,75.673470 112.190262,84.146660 
	C121.374710,93.185043 121.236153,105.657661 111.531296,117.638275 
	C125.071915,130.073807 138.637711,142.532471 151.760208,154.584015 
	C147.649368,166.574066 143.699661,178.094116 139.624481,189.980179 
	C122.773483,174.559891 105.628166,158.870270 88.486473,143.183960 
	C76.259338,153.071091 67.058472,154.620956 57.377670,148.440018 
	C49.208721,143.224365 45.322247,133.042999 47.901192,123.614586 
	C50.943577,112.491852 58.536221,107.555779 74.368881,106.669090 
	C72.757614,98.428307 74.131683,90.871376 80.335510,84.333923 
z"/>
<path fill="#FDCD02" opacity="1.000000" stroke="none" 
	d="
M432.502808,204.899597 
	C438.379761,209.026413 438.037811,214.647919 430.986725,218.463379 
	C428.986725,218.164734 427.664703,218.004974 426.342712,218.004868 
	C314.820709,217.996643 203.298721,217.997757 91.776741,218.034164 
	C90.170723,218.034683 88.564842,218.487244 86.958900,218.728821 
	C85.644501,217.878754 84.330101,217.028687 82.987640,215.414108 
	C83.309296,211.757812 83.659004,208.866013 84.008720,205.974228 
	C84.008720,205.974228 84.009125,206.009247 84.311096,205.986389 
	C85.052681,205.562744 85.492287,205.161942 85.931892,204.761139 
	C85.931892,204.761139 85.946075,204.885544 86.365173,204.934479 
	C185.538239,204.994019 284.292206,205.010132 383.046173,205.009781 
	C399.531708,205.009720 416.017273,204.938141 432.502808,204.899597 
z"/>
<path fill="#F9F9F9" opacity="1.000000" stroke="none" 
	d="
M261.609131,363.399597 
	C261.608978,361.656128 261.608978,360.366516 261.608978,359.115265 
	C272.247467,358.127045 282.433594,357.180878 293.075470,356.192352 
	C293.961548,364.087006 294.861877,372.108337 295.916931,381.508453 
	C284.718506,382.805420 273.505249,384.104065 261.609253,385.481812 
	C261.609253,377.714752 261.609253,370.784119 261.609131,363.399597 
z"/>
<path fill="#F9F9F9" opacity="1.000000" stroke="none" 
	d="
M247.902802,358.333496 
	C250.848663,358.497986 253.324097,358.635406 256.086365,358.788757 
	C256.086365,367.366882 256.086365,375.778168 256.086365,385.297852 
	C244.851990,384.106384 233.743866,382.928284 222.202271,381.704254 
	C223.174606,372.607910 224.049759,364.420807 224.935074,356.138733 
	C232.625839,356.879791 240.029099,357.593109 247.902802,358.333496 
z"/>
<path fill="#F8F8F8" opacity="1.000000" stroke="none" 
	d="
M188.699768,362.687805 
	C188.795120,355.297333 189.149139,348.217834 189.490784,341.385834 
	C199.775818,346.229553 209.425842,350.774231 219.837830,355.677734 
	C219.072342,362.728882 218.186066,370.892700 217.243057,379.579102 
	C205.955383,376.421204 196.543228,371.300690 188.699768,362.687805 
z"/>
<path fill="#F7F7F7" opacity="1.000000" stroke="none" 
	d="
M303.529419,378.836639 
	C302.238556,378.080841 300.698090,377.284302 300.560455,376.293030 
	C299.579529,369.226318 298.884918,362.119934 298.161346,355.587341 
	C308.093506,350.963989 317.761383,346.463623 328.172424,341.617340 
	C328.713623,347.593170 329.469879,354.203400 329.778442,360.834442 
	C329.839355,362.143951 328.386292,363.743256 327.275238,364.851929 
	C320.678284,371.434753 312.708801,375.767609 303.529419,378.836639 
z"/>
<path fill="#F9F9F9" opacity="1.000000" stroke="none" 
	d="
M242.134293,330.066162 
	C247.020706,330.565216 251.467484,331.014801 256.141449,331.487366 
	C256.141449,338.697662 256.141449,345.797852 256.141449,353.833527 
	C246.118042,352.963989 236.269836,352.109619 225.570740,351.181458 
	C226.382904,343.120850 227.139496,335.611694 227.944550,327.621735 
	C232.695816,328.449310 237.195236,329.233002 242.134293,330.066162 
z"/>
<path fill="#FAFAFA" opacity="1.000000" stroke="none" 
	d="
M288.391785,351.262512 
	C279.403809,352.197144 270.857086,353.075836 261.926575,353.993927 
	C261.926575,346.070496 261.926575,338.871368 261.926575,331.767151 
	C271.210785,330.480194 280.354309,329.212708 290.019745,327.872894 
	C290.739960,334.504456 291.621765,341.374664 292.070404,348.273041 
	C292.129211,349.176880 289.966705,350.225128 288.391785,351.262512 
z"/>
<path fill="#F8F8F8" opacity="1.000000" stroke="none" 
	d="
M296.888245,325.129333 
	C304.018219,322.234955 310.756927,319.439301 318.418457,316.260773 
	C320.701111,321.763184 323.260895,327.613861 325.454773,333.598663 
	C325.752197,334.410034 324.471710,336.204224 323.487213,337.016663 
	C316.059631,343.145935 307.420502,346.785645 297.480011,349.441589 
	C296.633453,341.711700 295.794647,334.380371 295.098114,327.035583 
	C295.045654,326.482239 296.006958,325.832794 296.888245,325.129333 
z"/>
<path fill="#F8F8F8" opacity="1.000000" stroke="none" 
	d="
M200.644318,341.355652 
	C189.821518,333.899506 191.303009,336.628357 195.517929,325.410278 
	C196.725662,322.195892 198.449921,319.175598 199.801666,316.349915 
	C206.981430,319.334686 213.721451,322.025024 220.336533,324.993744 
	C221.471848,325.503265 222.875183,327.259583 222.793594,328.336884 
	C222.271866,335.225830 221.369644,342.085938 220.451080,350.206635 
	C213.507507,347.121918 207.231934,344.333954 200.644318,341.355652 
z"/>
<path fill="#F6D332" opacity="1.000000" stroke="none" 
	d="
M432.167877,204.577820 
	C416.017273,204.938141 399.531708,205.009720 383.046173,205.009781 
	C284.292206,205.010132 185.538239,204.994019 86.303452,204.924026 
	C87.700089,204.463181 89.577370,203.711319 91.455025,203.710388 
	C203.105774,203.654816 314.756561,203.658340 426.407318,203.686279 
	C428.215881,203.686737 430.024414,204.057861 432.167877,204.577820 
z"/>
<path fill="#F9D635" opacity="1.000000" stroke="none" 
	d="
M87.411087,218.884613 
	C88.564842,218.487244 90.170723,218.034683 91.776741,218.034164 
	C203.298721,217.997757 314.820709,217.996643 426.342712,218.004868 
	C427.664703,218.004974 428.986725,218.164734 430.646301,218.485855 
	C429.340302,218.873886 427.696747,219.158920 426.053162,219.159210 
	C314.486969,219.179291 202.920792,219.176926 91.354599,219.170074 
	C90.190819,219.169998 89.027046,219.085480 87.411087,218.884613 
z"/>
<path fill="#F6D332" opacity="1.000000" stroke="none" 
	d="
M83.670845,206.112885 
	C83.659004,208.866013 83.309296,211.757812 82.937904,215.117523 
	C79.979050,212.336807 80.735146,209.253052 83.670845,206.112885 
z"/>
<path fill="#F6D332" opacity="1.000000" stroke="none" 
	d="
M85.615303,204.778122 
	C85.492287,205.161942 85.052681,205.562744 84.293594,205.986313 
	C84.415642,205.604431 84.857178,205.199768 85.615303,204.778122 
z"/>
<path fill="#030303" opacity="1.000000" stroke="none" 
	d="
M188.060944,277.760254 
	C180.123795,261.177094 184.757172,243.919846 199.239990,235.145111 
	C212.998703,226.809082 230.992889,230.323944 240.779480,243.259201 
	C251.548950,257.493561 248.184219,277.896179 233.369186,288.192932 
	C218.404083,298.593994 198.717148,294.186829 188.060944,277.760254 
z"/>
<path fill="#030303" opacity="1.000000" stroke="none" 
	d="
M288.829620,287.244812 
	C278.248047,278.209015 274.108856,267.157379 277.638397,253.985046 
	C280.994263,241.460800 289.561859,233.751236 302.219757,231.189606 
	C316.141693,228.372162 329.906433,235.481400 336.320465,248.206253 
	C342.622437,260.708832 339.688629,276.060272 329.169037,285.626251 
	C318.928680,294.938324 303.657043,296.361725 291.611267,289.116302 
	C290.757477,288.602753 289.948242,288.015167 288.829620,287.244812 
z"/>
<path fill="#0A0A0A" opacity="1.000000" stroke="none" 
	d="
M265.665497,297.905884 
	C267.928497,300.482483 271.713531,303.438904 271.233154,305.285889 
	C270.536987,307.962585 267.101044,310.655396 264.214661,311.868805 
	C259.481049,313.858795 254.368515,313.153534 249.926086,310.297089 
	C245.049881,307.161774 245.074081,302.205963 249.983459,299.141571 
	C254.789337,296.141785 259.989075,296.067139 265.665497,297.905884 
z"/>
<path fill="#100B01" opacity="1.000000" stroke="none" 
	d="
M187.695282,151.816025 
	C185.950882,154.362747 184.053696,156.165054 181.357147,154.145859 
	C178.424637,151.949982 179.744049,149.286179 181.622604,147.253784 
	C188.241501,140.092865 194.956375,133.016907 201.785110,126.056122 
	C203.672974,124.131744 206.343552,122.428452 208.671616,125.236687 
	C211.229233,128.321823 208.443237,130.115540 206.418823,132.172379 
	C200.159164,138.532333 194.071213,145.061295 187.695282,151.816025 
z"/>
<path fill="#130C00" opacity="1.000000" stroke="none" 
	d="
M326.231262,139.740723 
	C325.050446,138.536560 323.635376,137.732666 323.305817,136.610092 
	C322.860779,135.094299 322.613251,132.714920 323.455994,131.846970 
	C324.347321,130.928970 327.496674,130.570938 328.148712,131.306946 
	C334.288971,138.237610 340.205872,145.377289 345.876190,152.697617 
	C346.511505,153.517792 345.220032,155.830460 344.822083,157.451019 
	C342.946350,156.946869 340.394501,157.045929 339.312683,155.833420 
	C334.794830,150.769836 330.718628,145.312225 326.231262,139.740723 
z"/>
<path fill="#140D01" opacity="1.000000" stroke="none" 
	d="
M218.142044,140.081879 
	C214.146484,144.979431 210.317978,149.556366 206.707260,154.299103 
	C205.034851,156.495880 203.579346,159.153610 200.417770,157.229874 
	C196.951859,155.120987 198.552917,152.279465 200.329514,149.996246 
	C204.396591,144.769363 208.626511,139.666641 212.879974,134.588623 
	C214.576279,132.563492 216.753555,130.944565 219.275482,133.130386 
	C222.092499,135.571930 220.540024,137.830231 218.142044,140.081879 
z"/>
<path fill="#140D01" opacity="1.000000" stroke="none" 
	d="
M307.589752,137.095703 
	C311.309326,141.772385 314.775665,146.185181 318.136993,150.676620 
	C319.781067,152.873459 320.448883,155.336639 317.705231,157.120911 
	C314.904968,158.942047 313.245758,157.044952 311.660797,154.833328 
	C308.777344,150.809830 305.538055,147.032623 302.803345,142.916107 
	C301.878662,141.524200 302.031158,139.416672 301.691406,137.636169 
	C303.558685,137.378845 305.425995,137.121521 307.589752,137.095703 
z"/>
<path fill="#150D00" opacity="1.000000" stroke="none" 
	d="
M230.475113,140.706696 
	C235.639389,142.076172 236.354782,144.173248 233.280655,147.790039 
	C230.928909,150.556915 228.825409,153.592560 226.158340,156.008377 
	C224.889252,157.157928 222.564484,157.142044 220.717941,157.654114 
	C220.510712,155.638214 219.377380,152.942169 220.266525,151.731445 
	C223.157928,147.794388 226.789200,144.400681 230.475113,140.706696 
z"/>
</svg>